<svg width="414" height="351" viewBox="0 0 414 351" fill="none" xmlns="http://www.w3.org/2000/svg">
<path d="M414 0H0V323H414V0Z" fill="#243046"/>
<path d="M415 28H1V351H415V28Z" fill="#243046"/>
<path opacity="0.06" d="M198.117 244.347C195.344 244.347 192.577 244.623 189.859 245.173C188.847 240.124 186.704 235.371 183.59 231.27C180.476 227.169 176.473 223.828 171.882 221.497C167.29 219.167 162.23 217.907 157.082 217.814C151.934 217.721 146.832 218.796 142.159 220.959C137.985 209.707 129.53 200.561 118.64 195.518C107.749 190.475 95.3058 189.944 84.0246 194.039C72.7434 198.135 63.5396 206.526 58.4209 217.381C53.3021 228.236 52.6839 240.676 56.701 251.985C46.805 252.358 37.448 256.59 30.6325 263.774C23.8169 270.959 20.0841 280.526 20.233 290.428C20.3818 300.33 24.4004 309.78 31.4289 316.757C38.4573 323.733 47.9372 327.682 57.84 327.757H198.12C209.181 327.757 219.789 323.363 227.61 315.542C235.431 307.721 239.825 297.113 239.825 286.052C239.825 274.991 235.431 264.383 227.61 256.562C219.789 248.741 209.181 244.347 198.12 244.347H198.117Z" fill="white"/>
<path opacity="0.04" d="M235.766 120.795C237.68 120.794 239.59 120.985 241.466 121.364C242.164 117.882 243.643 114.604 245.79 111.775C247.938 108.947 250.699 106.643 253.866 105.035C257.033 103.428 260.523 102.559 264.073 102.495C267.624 102.431 271.143 103.172 274.366 104.664C275.771 100.794 277.925 97.2378 280.704 94.1997C283.484 91.1616 286.834 88.7006 290.564 86.9574C294.295 85.2142 298.332 84.2228 302.446 84.0398C306.559 83.8568 310.669 84.4859 314.539 85.891C318.409 87.2962 321.965 89.4499 325.003 92.2292C328.041 95.0086 330.502 98.3591 332.246 102.089C333.989 105.82 334.98 109.857 335.163 113.971C335.346 118.084 334.717 122.194 333.312 126.064C340.166 126.28 346.661 129.181 351.396 134.142C356.131 139.102 358.727 145.725 358.624 152.582C358.521 159.438 355.727 165.98 350.845 170.796C345.964 175.612 339.385 178.317 332.527 178.327H235.766C231.974 178.349 228.215 177.622 224.706 176.186C221.196 174.751 218.005 172.635 215.316 169.962C212.627 167.289 210.493 164.11 209.036 160.609C207.58 157.108 206.83 153.353 206.83 149.562C206.83 145.77 207.58 142.015 209.036 138.514C210.493 135.013 212.627 131.834 215.316 129.161C218.005 126.488 221.196 124.372 224.706 122.937C228.215 121.501 231.974 120.774 235.766 120.796V120.795Z" fill="white"/>
<path d="M308.37 101.175C317.664 101.178 326.766 98.5275 334.606 93.535C342.446 88.5426 348.697 81.4157 352.625 72.9922C356.553 64.5688 357.995 55.1989 356.781 45.9843C355.566 36.7696 351.746 28.0932 345.77 20.975C354.691 23.84 362.727 28.95 369.105 35.8144C375.483 42.6788 379.99 51.0673 382.192 60.1749C384.395 69.2824 384.22 78.8033 381.684 87.8238C379.148 96.8442 374.337 105.062 367.711 111.687C361.085 118.313 352.867 123.124 343.847 125.659C334.826 128.195 325.305 128.369 316.198 126.166C307.09 123.962 298.702 119.455 291.838 113.077C284.974 106.698 279.865 98.6626 277 89.741C285.779 97.1365 296.891 101.187 308.37 101.175V101.175Z" fill="#FFEB98"/>
<path d="M362.841 30.107C371.107 40.6107 375.235 53.781 374.443 67.1238C373.65 80.4667 367.993 93.0559 358.541 102.507C349.09 111.959 336.501 117.616 323.158 118.409C309.815 119.201 296.645 115.073 286.141 106.807C290.911 112.885 296.915 117.882 303.758 121.468C310.602 125.054 318.128 127.148 325.84 127.611C333.552 128.075 341.274 126.897 348.497 124.156C355.721 121.415 362.28 117.172 367.743 111.709C373.206 106.246 377.449 99.6867 380.19 92.4634C382.931 85.2401 384.109 77.5176 383.645 69.8056C383.182 62.0936 381.088 54.5676 377.502 47.7245C373.916 40.8813 368.919 34.8767 362.841 30.107V30.107Z" fill="#EFCF6E"/>
<path d="M321.401 122.672C323.672 122.672 325.936 122.898 328.162 123.348C328.99 119.215 330.745 115.324 333.294 111.966C335.843 108.609 339.12 105.874 342.879 103.966C346.637 102.058 350.78 101.027 354.994 100.951C359.209 100.874 363.386 101.754 367.211 103.525C370.579 94.2475 377.495 86.6879 386.437 82.5094C395.379 78.3309 405.614 77.8758 414.892 81.244C424.17 84.6123 431.729 91.528 435.908 100.47C440.086 109.412 440.541 119.647 437.173 128.925C445.305 129.186 453.009 132.631 458.626 138.518C464.242 144.405 467.32 152.263 467.198 160.398C467.076 168.534 463.763 176.295 457.972 182.011C452.182 187.727 444.377 190.939 436.241 190.955H321.401C316.902 190.979 312.442 190.114 308.279 188.409C304.115 186.705 300.33 184.194 297.14 181.021C293.95 177.848 291.418 174.076 289.691 169.922C287.963 165.767 287.074 161.313 287.074 156.813C287.074 152.314 287.963 147.86 289.691 143.705C291.418 139.551 293.95 135.779 297.14 132.606C300.33 129.433 304.115 126.922 308.279 125.218C312.442 123.513 316.902 122.648 321.401 122.672V122.672Z" fill="#333E53"/>
<path opacity="0.06" d="M72.216 58.203C70.2819 58.2028 68.3527 58.3958 66.457 58.779C65.7514 55.2581 64.2567 51.9431 62.0852 49.0832C59.9138 46.2233 57.1221 43.893 53.9202 42.2675C50.7183 40.6421 47.1895 39.7638 43.5992 39.6988C40.009 39.6337 36.4507 40.3836 33.192 41.892C30.3226 33.9885 24.4311 27.5487 16.8136 23.989C9.19604 20.4294 0.476438 20.0416 -7.42701 22.911C-15.3305 25.7804 -21.7704 31.6719 -25.33 39.2894C-28.8896 46.9069 -29.2774 55.6265 -26.408 63.53C-33.3337 63.7549 -39.894 66.6909 -44.6761 71.7056C-49.4581 76.7203 -52.0794 83.4126 -51.9753 90.3411C-51.8712 97.2697 -49.05 103.88 -44.1195 108.749C-39.1889 113.618 -32.5433 116.355 -25.614 116.372H72.215C79.9287 116.372 87.3264 113.308 92.7808 107.853C98.2352 102.399 101.299 95.0012 101.299 87.2875C101.299 79.5738 98.2352 72.1761 92.7808 66.7216C87.3264 61.2672 79.9287 58.203 72.215 58.203H72.216Z" fill="white"/>
<g opacity="0.92">
<path opacity="0.92" d="M179.109 114.832L179.568 115.762L180.595 115.911L179.852 116.635L180.028 117.657L179.11 117.175L178.192 117.657L178.368 116.635L177.625 115.911L178.652 115.762L179.109 114.832Z" fill="#FFF6D2"/>
</g>
<g opacity="0.51">
<path opacity="0.51" d="M250.109 82.832L250.568 83.762L251.595 83.911L250.852 84.635L251.028 85.657L250.11 85.175L249.192 85.657L249.368 84.635L248.625 83.911L249.652 83.762L250.109 82.832Z" fill="#FFF6D2"/>
</g>
<g opacity="0.92">
<path opacity="0.92" d="M44.109 15.832L44.568 16.762L45.595 16.911L44.852 17.635L45.028 18.657L44.11 18.175L43.192 18.657L43.368 17.635L42.625 16.911L43.652 16.762L44.109 15.832Z" fill="#FFF6D2"/>
</g>
<g opacity="0.92">
<path opacity="0.45" d="M231.109 24.832L231.568 25.762L232.595 25.911L231.852 26.635L232.028 27.657L231.11 27.175L230.192 27.657L230.368 26.635L229.625 25.911L230.652 25.762L231.109 24.832Z" fill="#FFF6D2"/>
</g>
<g opacity="0.48">
<path opacity="0.48" d="M164.109 185.832L164.568 186.762L165.595 186.911L164.852 187.635L165.028 188.657L164.11 188.175L163.192 188.657L163.368 187.635L162.625 186.911L163.652 186.762L164.109 185.832Z" fill="#FFF6D2"/>
</g>
<g opacity="0.92">
<path opacity="0.92" d="M264.109 245.832L264.568 246.762L265.595 246.911L264.852 247.635L265.028 248.657L264.11 248.175L263.192 248.657L263.368 247.635L262.625 246.911L263.652 246.762L264.109 245.832Z" fill="#FFF6D2"/>
</g>
<g opacity="0.46">
<path opacity="0.46" d="M304.109 195.832L304.568 196.762L305.595 196.911L304.852 197.635L305.028 198.657L304.11 198.175L303.192 198.657L303.368 197.635L302.625 196.911L303.652 196.762L304.109 195.832Z" fill="#FFF6D2"/>
</g>
<g opacity="0.92">
<path opacity="0.92" d="M384.109 315.832L384.568 316.762L385.595 316.911L384.852 317.635L385.028 318.657L384.11 318.175L383.192 318.657L383.368 317.635L382.625 316.911L383.652 316.762L384.109 315.832Z" fill="#FFF6D2"/>
</g>
</svg>
